<?xml version="1.0" standalone="no"?>
<!DOCTYPE svg PUBLIC "-//W3C//DTD SVG 20010904//EN"
 "http://www.w3.org/TR/2001/REC-SVG-20010904/DTD/svg10.dtd">
<svg version="1.0" xmlns="http://www.w3.org/2000/svg"
 width="500.000000pt" height="500.000000pt" viewBox="0 0 500.000000 500.000000"
 preserveAspectRatio="xMidYMid meet">
<metadata>
Created by potrace 1.11, written by Peter Selinger 2001-2013
</metadata>
<g transform="translate(0.000000,500.000000) scale(0.100000,-0.100000)"
fill="#000000" stroke="none">
<path d="M2337 4194 c-1 -1 -31 -5 -67 -8 -36 -4 -83 -11 -105 -16 -22 -5 -53
-11 -68 -14 -109 -19 -346 -107 -463 -172 -416 -229 -722 -594 -868 -1036 -19
-57 -37 -117 -41 -134 l-6 -32 113 -26 c62 -15 151 -36 198 -47 47 -11 94 -21
105 -23 11 -3 60 -13 109 -25 92 -20 106 -20 106 3 0 8 12 49 26 92 109 325
361 590 680 717 131 52 198 68 359 83 39 3 72 8 74 10 6 6 8 604 3 622 -4 10
-24 12 -79 10 -41 -2 -75 -4 -76 -4z"/>
<path d="M701 2701 c-5 -9 -12 -41 -16 -71 -4 -30 -10 -64 -12 -75 -3 -11 -6
-99 -8 -195 -3 -195 13 -331 59 -504 137 -511 500 -945 981 -1171 132 -62 312
-123 415 -139 19 -3 47 -8 62 -11 52 -10 93 -14 196 -21 l102 -6 0 321 0 321
-42 1 c-90 1 -209 22 -313 55 -311 99 -571 326 -709 619 -86 182 -116 324
-111 530 2 83 8 167 14 188 8 35 8 37 -18 43 -14 3 -39 10 -56 14 -16 5 -46
11 -66 14 -20 3 -42 8 -50 10 -8 3 -25 8 -39 11 -14 2 -47 10 -75 15 -49 11
-70 16 -110 24 -11 2 -59 13 -108 24 -81 18 -88 19 -96 3z"/>
<path d="M2540 2330 l0 -320 565 0 c531 0 565 -1 565 -17 0 -27 -66 -181 -100
-236 -17 -27 -30 -51 -30 -53 0 -3 -24 -38 -54 -77 -58 -77 -163 -183 -236
-239 -151 -114 -362 -203 -530 -224 -97 -11 -104 -12 -142 -13 l-38 -1 0 -321
0 -321 100 6 c502 30 955 253 1279 631 196 229 335 506 396 790 35 167 36 171
42 453 l6 262 -912 0 -911 0 0 -320z"/>
</g>
</svg>
